<?xml version="1.0" standalone="no"?><!DOCTYPE svg PUBLIC "-//W3C//DTD SVG 1.1//EN" "http://www.w3.org/Graphics/SVG/1.1/DTD/svg11.dtd"><svg t="1537341232116" class="icon" style="" viewBox="0 0 1024 1024" version="1.1" xmlns="http://www.w3.org/2000/svg" p-id="1488" xmlns:xlink="http://www.w3.org/1999/xlink" width="200" height="200"><defs><style type="text/css"></style></defs><path d="M810.666667 341.333333 640 512 768 512C768 653.226667 653.226667 768 512 768 469.333333 768 427.946667 757.333333 392.533333 738.133333L330.24 800.426667C382.72 833.706667 445.013333 853.333333 512 853.333333 700.586667 853.333333 853.333333 700.586667 853.333333 512L981.333333 512M256 512C256 370.773333 370.773333 256 512 256 554.666667 256 596.053333 266.666667 631.466667 285.866667L693.76 223.573333C641.28 190.293333 578.986667 170.666667 512 170.666667 323.413333 170.666667 170.666667 323.413333 170.666667 512L42.666667 512 213.333333 682.666667 384 512" p-id="1489"></path></svg>