<?xml version="1.0" standalone="no"?><!DOCTYPE svg PUBLIC "-//W3C//DTD SVG 1.1//EN" "http://www.w3.org/Graphics/SVG/1.1/DTD/svg11.dtd"><svg t="1541465237251" class="icon" style="" viewBox="0 0 1280 1024" version="1.1" xmlns="http://www.w3.org/2000/svg" p-id="852" xmlns:xlink="http://www.w3.org/1999/xlink" width="250" height="200"><defs><style type="text/css"></style></defs><path d="M1280 896v64a64 64 0 0 1-64 64H64a64 64 0 0 1-64-64v-64a64 64 0 0 0 64 64h1152a64 64 0 0 0 64-64z" fill="#1967D2" p-id="853"></path><path d="M1216 128h-549.76a64 64 0 0 1-44.8-18.56L530.56 18.56a64 64 0 0 0-44.8-18.56H64a64 64 0 0 0-64 64v832a64 64 0 0 0 64 64h1152a64 64 0 0 0 64-64V192a64 64 0 0 0-64-64zM64 128V64h412.8l64 64z" fill="#4C9AFF" p-id="854"></path><path d="M384 544a99.2 99.2 0 0 1 96-99.2h128V384h-128a160 160 0 1 0 0 320h128v-64h-128A99.2 99.2 0 0 1 384 544zM512 576h256V512H512z m288-192h-128v60.8h128a99.2 99.2 0 1 1 0 198.4h-128V704h128a160 160 0 1 0 0-320z" fill="#1967D2" p-id="855"></path></svg>